<?xml version="1.0" encoding="UTF-8" standalone="no" ?>
<!DOCTYPE svg PUBLIC "-//W3C//DTD SVG 1.1//EN" "http://www.w3.org/Graphics/SVG/1.1/DTD/svg11.dtd">
<svg xmlns="http://www.w3.org/2000/svg" xmlns:xlink="http://www.w3.org/1999/xlink" version="1.1" width="1080" height="1080" viewBox="0 0 1080 1080" xml:space="preserve">
<desc>Created with Fabric.js 5.2.4</desc>
<defs>
</defs>
<g transform="matrix(1 0 0 1 540 540)" id="305aefa1-c818-444a-952b-8f7170f27b51"  >
<rect style="stroke: none; stroke-width: 1; stroke-dasharray: none; stroke-linecap: butt; stroke-dashoffset: 0; stroke-linejoin: miter; stroke-miterlimit: 4; fill: rgb(255,255,255); fill-rule: nonzero; opacity: 1; visibility: hidden;" vector-effect="non-scaling-stroke"  x="-540" y="-540" rx="0" ry="0" width="1080" height="1080" />
</g>
<g transform="matrix(1 0 0 1 540 540)" id="cf1e26a3-369e-410f-9860-ff50bfeaa99d"  >
</g>
<g transform="matrix(10.09 0 0 10.09 512.76 524.6)" id="59eba5ef-d48c-4c5d-98d5-31a13b4a26a9"  >
<path style="stroke: rgb(0,0,0); stroke-width: 0; stroke-dasharray: none; stroke-linecap: butt; stroke-dashoffset: 0; stroke-linejoin: miter; stroke-miterlimit: 4; fill: rgb(201,209,217); fill-rule: nonzero; opacity: 1;" vector-effect="non-scaling-stroke"  transform=" translate(-16, -16)" d="M 7.5 5 C 6.13281 5 5 6.13281 5 7.5 L 5 24.5 C 5 25.86719 6.13281 27 7.5 27 L 24.5 27 C 25.86719 27 27 25.86719 27 24.5 L 27 7.5 C 27 6.13281 25.86719 5 24.5 5 z M 7.5 7 L 24.5 7 C 24.78516 7 25 7.21484 25 7.5 L 25 24.5 C 25 24.78516 24.78516 25 24.5 25 L 7.5 25 C 7.21484 25 7 24.78516 7 24.5 L 7 7.5 C 7 7.21484 7.21484 7 7.5 7 z M 10.4375 8.71875 C 9.48828 8.71875 8.71875 9.48828 8.71875 10.4375 C 8.71875 11.38672 9.48828 12.15625 10.4375 12.15625 C 11.38672 12.15625 12.15625 11.38672 12.15625 10.4375 C 12.15625 9.48828 11.38672 8.71875 10.4375 8.71875 z M 19.46875 13.28125 C 18.03516 13.28125 17.08203 14.06641 16.6875 14.8125 L 16.625 14.8125 L 16.625 13.5 L 13.8125 13.5 L 13.8125 23 L 16.75 23 L 16.75 18.3125 C 16.75 17.07422 16.99609 15.875 18.53125 15.875 C 20.04297 15.875 20.0625 17.27344 20.0625 18.375 L 20.0625 23 L 23 23 L 23 17.78125 C 23 15.22656 22.45703 13.28125 19.46875 13.28125 z M 9 13.5 L 9 23 L 11.96875 23 L 11.96875 13.5 z" stroke-linecap="round"  fill="currentColor" />
</g>
<g transform="matrix(NaN NaN NaN NaN 0 0)"  >
<g style=""   >
</g>
</g>
<g transform="matrix(NaN NaN NaN NaN 0 0)"  >
<g style=""   >
</g>
</g>
</svg>